<svg width="270" height="145" viewBox="0 0 270 145" fill="none" xmlns="http://www.w3.org/2000/svg">
<g id="STRAP DOWN" filter="url(#filter0_d_878_101743)">
<g id="Band / Lemonade">
<path id="straps" fill-rule="evenodd" clip-rule="evenodd" d="M14.8534 12.188C14.8534 12.188 13.7813 20.4217 29.8011 30.2334C45.8208 40.0452 48.4 53.2884 48.4 53.2884L53.5268 123.635C54.4045 135.678 64.431 145 76.5059 145H192.125C204.422 145 214.554 135.348 215.228 123.07C216.568 98.6414 218.849 61.4919 220.723 53.2884C223.568 40.8272 228.905 37.0579 240.299 30.2334C251.693 23.409 255.453 12.3417 255.453 12.3417L14.8534 12.188Z" fill="#444444"/>
<g id="Combined Shape">
<mask id="path-2-inside-1_878_101743" fill="white">
<path fill-rule="evenodd" clip-rule="evenodd" d="M62.7236 55.027C62.7236 57.678 64.8727 59.827 67.5236 59.827H98.0348C100.686 59.827 102.835 57.678 102.835 55.027V52.1157C102.835 49.4648 100.686 47.3157 98.0348 47.3157H67.5236C64.8727 47.3157 62.7236 49.4648 62.7236 52.1157V55.027ZM115.553 55.027C115.553 57.678 117.702 59.827 120.353 59.827H150.864C153.515 59.827 155.664 57.678 155.664 55.027V52.1157C155.664 49.4648 153.515 47.3157 150.864 47.3157H120.353C117.702 47.3157 115.553 49.4648 115.553 52.1157V55.027ZM173.182 59.827C170.531 59.827 168.382 57.678 168.382 55.027V52.1157C168.382 49.4648 170.531 47.3157 173.182 47.3157H203.693C206.344 47.3157 208.493 49.4648 208.493 52.1157V55.027C208.493 57.678 206.344 59.827 203.693 59.827H173.182Z"/>
</mask>
<path fill-rule="evenodd" clip-rule="evenodd" d="M62.7236 55.027C62.7236 57.678 64.8727 59.827 67.5236 59.827H98.0348C100.686 59.827 102.835 57.678 102.835 55.027V52.1157C102.835 49.4648 100.686 47.3157 98.0348 47.3157H67.5236C64.8727 47.3157 62.7236 49.4648 62.7236 52.1157V55.027ZM115.553 55.027C115.553 57.678 117.702 59.827 120.353 59.827H150.864C153.515 59.827 155.664 57.678 155.664 55.027V52.1157C155.664 49.4648 153.515 47.3157 150.864 47.3157H120.353C117.702 47.3157 115.553 49.4648 115.553 52.1157V55.027ZM173.182 59.827C170.531 59.827 168.382 57.678 168.382 55.027V52.1157C168.382 49.4648 170.531 47.3157 173.182 47.3157H203.693C206.344 47.3157 208.493 49.4648 208.493 52.1157V55.027C208.493 57.678 206.344 59.827 203.693 59.827H173.182Z" fill="#C1B750"/>
<path d="M67.5236 60.787C64.3425 60.787 61.7636 58.2082 61.7636 55.027H63.6836C63.6836 57.1478 65.4029 58.867 67.5236 58.867V60.787ZM98.0348 60.787H67.5236V58.867H98.0348V60.787ZM103.795 55.027C103.795 58.2082 101.216 60.787 98.0348 60.787V58.867C100.156 58.867 101.875 57.1478 101.875 55.027H103.795ZM103.795 52.1157V55.027H101.875V52.1157H103.795ZM98.0348 46.3557C101.216 46.3557 103.795 48.9346 103.795 52.1157H101.875C101.875 49.995 100.156 48.2757 98.0348 48.2757V46.3557ZM67.5236 46.3557H98.0348V48.2757H67.5236V46.3557ZM61.7636 52.1157C61.7636 48.9346 64.3425 46.3557 67.5236 46.3557V48.2757C65.4029 48.2757 63.6836 49.995 63.6836 52.1157H61.7636ZM61.7636 55.027V52.1157H63.6836V55.027H61.7636ZM120.353 60.787C117.172 60.787 114.593 58.2082 114.593 55.027H116.513C116.513 57.1478 118.232 58.867 120.353 58.867V60.787ZM150.864 60.787H120.353V58.867H150.864V60.787ZM156.624 55.027C156.624 58.2082 154.045 60.787 150.864 60.787V58.867C152.985 58.867 154.704 57.1478 154.704 55.027H156.624ZM156.624 52.1157V55.027H154.704V52.1157H156.624ZM150.864 46.3557C154.045 46.3557 156.624 48.9346 156.624 52.1157H154.704C154.704 49.995 152.985 48.2757 150.864 48.2757V46.3557ZM120.353 46.3557H150.864V48.2757H120.353V46.3557ZM114.593 52.1157C114.593 48.9346 117.172 46.3557 120.353 46.3557V48.2757C118.232 48.2757 116.513 49.995 116.513 52.1157H114.593ZM114.593 55.027V52.1157H116.513V55.027H114.593ZM169.342 55.027C169.342 57.1478 171.061 58.867 173.182 58.867V60.787C170.001 60.787 167.422 58.2082 167.422 55.027H169.342ZM169.342 52.1157V55.027H167.422V52.1157H169.342ZM173.182 48.2757C171.061 48.2757 169.342 49.995 169.342 52.1157H167.422C167.422 48.9346 170.001 46.3557 173.182 46.3557V48.2757ZM203.693 48.2757H173.182V46.3557H203.693V48.2757ZM207.533 52.1157C207.533 49.995 205.814 48.2757 203.693 48.2757V46.3557C206.875 46.3557 209.453 48.9346 209.453 52.1157H207.533ZM207.533 55.027V52.1157H209.453V55.027H207.533ZM203.693 58.867C205.814 58.867 207.533 57.1478 207.533 55.027H209.453C209.453 58.2082 206.875 60.787 203.693 60.787V58.867ZM173.182 58.867H203.693V60.787H173.182V58.867Z" fill="#968E3C" mask="url(#path-2-inside-1_878_101743)"/>
</g>
</g>
</g>
<defs>
<filter id="filter0_d_878_101743" x="0.838867" y="0.187988" width="268.614" height="160.812" filterUnits="userSpaceOnUse" color-interpolation-filters="sRGB">
<feFlood flood-opacity="0" result="BackgroundImageFix"/>
<feColorMatrix in="SourceAlpha" type="matrix" values="0 0 0 0 0 0 0 0 0 0 0 0 0 0 0 0 0 0 127 0" result="hardAlpha"/>
<feOffset dy="2"/>
<feGaussianBlur stdDeviation="7"/>
<feColorMatrix type="matrix" values="0 0 0 0 0 0 0 0 0 0 0 0 0 0 0 0 0 0 0.106261 0"/>
<feBlend mode="normal" in2="BackgroundImageFix" result="effect1_dropShadow_878_101743"/>
<feBlend mode="normal" in="SourceGraphic" in2="effect1_dropShadow_878_101743" result="shape"/>
</filter>
</defs>
</svg>
