<svg width="270" height="149" viewBox="0 0 270 149" fill="none" xmlns="http://www.w3.org/2000/svg">
<g id="STRAP UP" filter="url(#filter0_d_878_101736)">
<g id="Band / Lemonade">
<path id="straps" fill-rule="evenodd" clip-rule="evenodd" d="M14.8534 132.812C14.8534 132.812 13.7813 124.578 29.8011 114.767C45.8208 104.955 48.4 91.7116 48.4 91.7116L53.5268 21.3653C54.4045 9.32237 64.431 0 76.5059 0H192.125C204.422 0 214.554 9.65159 215.228 21.9302C216.568 46.3586 218.849 83.5081 220.723 91.7116C223.568 104.173 228.905 107.942 240.299 114.767C251.693 121.591 255.453 132.658 255.453 132.658L14.8534 132.812Z" fill="#444444"/>
<g id="Combined Shape">
<mask id="path-2-inside-1_878_101736" fill="white">
<path fill-rule="evenodd" clip-rule="evenodd" d="M62.7236 89.9728C62.7236 87.3219 64.8727 85.1729 67.5236 85.1729H98.0348C100.686 85.1729 102.835 87.3219 102.835 89.9729V92.8841C102.835 95.5351 100.686 97.6841 98.0348 97.6841H67.5236C64.8727 97.6841 62.7236 95.5351 62.7236 92.8841V89.9728ZM115.553 89.9728C115.553 87.3219 117.702 85.1729 120.353 85.1729H150.864C153.515 85.1729 155.664 87.3219 155.664 89.9729V92.8841C155.664 95.5351 153.515 97.6841 150.864 97.6841H120.353C117.702 97.6841 115.553 95.5351 115.553 92.8841V89.9728ZM173.182 85.1729C170.531 85.1729 168.382 87.3219 168.382 89.9728V92.8841C168.382 95.5351 170.531 97.6841 173.182 97.6841H203.693C206.344 97.6841 208.493 95.5351 208.493 92.8841V89.9729C208.493 87.3219 206.344 85.1729 203.693 85.1729H173.182Z"/>
</mask>
<path fill-rule="evenodd" clip-rule="evenodd" d="M62.7236 89.9728C62.7236 87.3219 64.8727 85.1729 67.5236 85.1729H98.0348C100.686 85.1729 102.835 87.3219 102.835 89.9729V92.8841C102.835 95.5351 100.686 97.6841 98.0348 97.6841H67.5236C64.8727 97.6841 62.7236 95.5351 62.7236 92.8841V89.9728ZM115.553 89.9728C115.553 87.3219 117.702 85.1729 120.353 85.1729H150.864C153.515 85.1729 155.664 87.3219 155.664 89.9729V92.8841C155.664 95.5351 153.515 97.6841 150.864 97.6841H120.353C117.702 97.6841 115.553 95.5351 115.553 92.8841V89.9728ZM173.182 85.1729C170.531 85.1729 168.382 87.3219 168.382 89.9728V92.8841C168.382 95.5351 170.531 97.6841 173.182 97.6841H203.693C206.344 97.6841 208.493 95.5351 208.493 92.8841V89.9729C208.493 87.3219 206.344 85.1729 203.693 85.1729H173.182Z" fill="#C1B750"/>
<path d="M67.5236 84.2129C64.3425 84.2129 61.7636 86.7917 61.7636 89.9728H63.6836C63.6836 87.8521 65.4029 86.1329 67.5236 86.1329V84.2129ZM98.0348 84.2129H67.5236V86.1329H98.0348V84.2129ZM103.795 89.9729C103.795 86.7917 101.216 84.2129 98.0348 84.2129V86.1329C100.156 86.1329 101.875 87.8521 101.875 89.9729H103.795ZM103.795 92.8841V89.9729H101.875V92.8841H103.795ZM98.0348 98.6441C101.216 98.6441 103.795 96.0653 103.795 92.8841H101.875C101.875 95.0049 100.156 96.7241 98.0348 96.7241V98.6441ZM67.5236 98.6441H98.0348V96.7241H67.5236V98.6441ZM61.7636 92.8841C61.7636 96.0653 64.3425 98.6441 67.5236 98.6441V96.7241C65.4029 96.7241 63.6836 95.0049 63.6836 92.8841H61.7636ZM61.7636 89.9728V92.8841H63.6836V89.9728H61.7636ZM120.353 84.2129C117.172 84.2129 114.593 86.7917 114.593 89.9728H116.513C116.513 87.8521 118.232 86.1329 120.353 86.1329V84.2129ZM150.864 84.2129H120.353V86.1329H150.864V84.2129ZM156.624 89.9729C156.624 86.7917 154.045 84.2129 150.864 84.2129V86.1329C152.985 86.1329 154.704 87.8521 154.704 89.9729H156.624ZM156.624 92.8841V89.9729H154.704V92.8841H156.624ZM150.864 98.6441C154.045 98.6441 156.624 96.0653 156.624 92.8841H154.704C154.704 95.0049 152.985 96.7241 150.864 96.7241V98.6441ZM120.353 98.6441H150.864V96.7241H120.353V98.6441ZM114.593 92.8841C114.593 96.0653 117.172 98.6441 120.353 98.6441V96.7241C118.232 96.7241 116.513 95.0049 116.513 92.8841H114.593ZM114.593 89.9728V92.8841H116.513V89.9728H114.593ZM169.342 89.9728C169.342 87.8521 171.061 86.1329 173.182 86.1329V84.2129C170.001 84.2129 167.422 86.7917 167.422 89.9728H169.342ZM169.342 92.8841V89.9728H167.422V92.8841H169.342ZM173.182 96.7241C171.061 96.7241 169.342 95.0049 169.342 92.8841H167.422C167.422 96.0653 170.001 98.6441 173.182 98.6441V96.7241ZM203.693 96.7241H173.182V98.6441H203.693V96.7241ZM207.533 92.8841C207.533 95.0049 205.814 96.7241 203.693 96.7241V98.6441C206.875 98.6441 209.453 96.0653 209.453 92.8841H207.533ZM207.533 89.9729V92.8841H209.453V89.9729H207.533ZM203.693 86.1329C205.814 86.1329 207.533 87.8521 207.533 89.9729H209.453C209.453 86.7917 206.875 84.2129 203.693 84.2129V86.1329ZM173.182 86.1329H203.693V84.2129H173.182V86.1329Z" fill="#968E3C" mask="url(#path-2-inside-1_878_101736)"/>
</g>
</g>
</g>
<defs>
<filter id="filter0_d_878_101736" x="0.838867" y="-12" width="268.614" height="160.812" filterUnits="userSpaceOnUse" color-interpolation-filters="sRGB">
<feFlood flood-opacity="0" result="BackgroundImageFix"/>
<feColorMatrix in="SourceAlpha" type="matrix" values="0 0 0 0 0 0 0 0 0 0 0 0 0 0 0 0 0 0 127 0" result="hardAlpha"/>
<feOffset dy="2"/>
<feGaussianBlur stdDeviation="7"/>
<feColorMatrix type="matrix" values="0 0 0 0 0 0 0 0 0 0 0 0 0 0 0 0 0 0 0.106261 0"/>
<feBlend mode="normal" in2="BackgroundImageFix" result="effect1_dropShadow_878_101736"/>
<feBlend mode="normal" in="SourceGraphic" in2="effect1_dropShadow_878_101736" result="shape"/>
</filter>
</defs>
</svg>
