<svg width="204" height="244" viewBox="0 0 204 244" fill="none" xmlns="http://www.w3.org/2000/svg">
<g id="Group 5">
<g id="Dots">
<path id="Dots_2" fill-rule="evenodd" clip-rule="evenodd" d="M96.6134 241.558C96.6134 242.697 95.6935 243.62 94.5587 243.62C93.4239 243.62 92.5039 242.697 92.5039 241.558C92.5039 240.419 93.4239 239.495 94.5587 239.495C95.6935 239.495 96.6134 240.419 96.6134 241.558ZM104.833 241.558C104.833 242.697 103.913 243.62 102.778 243.62C101.643 243.62 100.723 242.697 100.723 241.558C100.723 240.419 101.643 239.495 102.778 239.495C103.913 239.495 104.833 240.419 104.833 241.558ZM110.997 243.62C112.132 243.62 113.052 242.697 113.052 241.558C113.052 240.419 112.132 239.495 110.997 239.495C109.862 239.495 108.942 240.419 108.942 241.558C108.942 242.697 109.862 243.62 110.997 243.62Z" fill="white" fill-opacity="0.35"/>
<ellipse id="Dot - Selected" cx="103.463" cy="241.558" rx="2.05477" ry="2.0624" fill="white"/>
</g>
<g id="Status Bar">
<path id="10:09" fill-rule="evenodd" clip-rule="evenodd" d="M50.3642 16.874C51.627 16.874 52.7043 16.5485 53.5962 15.8977C54.488 15.2468 55.1693 14.3045 55.6402 13.0706C56.1111 11.8368 56.3466 10.3509 56.3466 8.61285C56.3466 7.14659 56.1735 5.91636 55.8275 4.92216C55.4815 3.92797 55.0213 3.13404 54.447 2.54038C53.8726 1.94673 53.2412 1.51936 52.5527 1.2583C51.8642 0.997232 51.174 0.866699 50.4819 0.866699C49.426 0.866699 48.486 1.09558 47.6619 1.55334C46.8379 2.0111 46.1904 2.63694 45.7195 3.43087C45.2487 4.2248 45.0132 5.13316 45.0132 6.15597C45.0132 7.13586 45.2362 8.01204 45.6821 8.78451C46.128 9.55698 46.738 10.1649 47.5121 10.6084C48.2862 11.0519 49.162 11.2736 50.1394 11.2736C50.7958 11.2736 51.4112 11.1699 51.9855 10.9625C52.5599 10.755 53.0611 10.46 53.4891 10.0773C53.9172 9.69467 54.2383 9.24943 54.4523 8.7416H54.4844C54.4702 9.77156 54.3721 10.6853 54.1901 11.4828C54.0082 12.2803 53.7442 12.9544 53.3982 13.5052C53.0522 14.0559 52.6276 14.4743 52.1246 14.7604C51.6217 15.0465 51.042 15.1896 50.3856 15.1896C49.5865 15.1896 48.8998 15.0072 48.3255 14.6424C47.7511 14.2776 47.3569 13.7376 47.1429 13.0224H45.1845C45.3343 13.802 45.65 14.4797 46.1316 15.0555C46.6132 15.6312 47.2178 16.0783 47.9455 16.3966C48.6733 16.7148 49.4795 16.874 50.3642 16.874ZM17.7126 16.874C18.9112 16.874 19.9333 16.5467 20.7787 15.8923C21.6242 15.2378 22.2699 14.3098 22.7158 13.1082C23.1617 11.9066 23.3846 10.4904 23.3846 8.85959C23.3846 7.23597 23.1617 5.82693 22.7158 4.63246C22.2699 3.43799 21.6242 2.51353 20.7787 1.85908C19.9333 1.20463 18.9112 0.877401 17.7126 0.877401C16.5211 0.877401 15.4991 1.20642 14.6465 1.86445C13.7939 2.52248 13.1429 3.45051 12.6934 4.64855C12.2439 5.8466 12.0192 7.25385 12.0192 8.87032C12.0192 10.5011 12.2439 11.9155 12.6934 13.1135C13.1429 14.3116 13.7921 15.2378 14.6412 15.8923C15.4902 16.5467 16.514 16.874 17.7126 16.874ZM8.05948 16.6158V1.13425H6.17594C5.90483 1.33452 5.63193 1.533 5.35725 1.72969L4.94522 2.02473L4.5332 2.31977L3.70915 2.90985L2.8851 3.49994C2.61042 3.69663 2.33752 3.89511 2.06641 4.09538V6.03728C2.33752 5.84417 2.61042 5.65284 2.8851 5.4633C3.15979 5.27375 3.43269 5.08421 3.7038 4.89467L4.51715 4.32605C4.78826 4.13651 5.06116 3.94697 5.33584 3.75743C5.61053 3.56788 5.88343 3.37655 6.15454 3.18344H6.19735V16.6158H8.05948ZM15.663 14.4118C16.2231 14.9304 16.9062 15.1896 17.7124 15.1896C18.5186 15.1896 19.1982 14.9304 19.7511 14.4118C20.3041 13.8932 20.725 13.1619 21.014 12.2178C21.3029 11.2736 21.4474 10.1579 21.4474 8.87041C21.4474 7.59726 21.3011 6.49041 21.0086 5.54986C20.7161 4.60931 20.2934 3.87796 19.7404 3.35583C19.1875 2.8337 18.5115 2.57263 17.7124 2.57263C16.9134 2.57263 16.2356 2.8337 15.6791 3.35583C15.1226 3.87796 14.6963 4.61109 14.4002 5.55522C14.1041 6.49935 13.9561 7.60084 13.9561 8.85968C13.9561 10.1471 14.1005 11.2647 14.3895 12.2124C14.6784 13.1601 15.1029 13.8932 15.663 14.4118ZM27.4622 5.76969C27.8047 5.76969 28.0936 5.65167 28.3291 5.41564C28.5645 5.17961 28.6822 4.88993 28.6822 4.54661C28.6822 4.20329 28.5645 3.91361 28.3291 3.67758C28.0936 3.44155 27.8047 3.32353 27.4622 3.32353C27.1197 3.32353 26.8308 3.44155 26.5954 3.67758C26.3599 3.91361 26.2422 4.20329 26.2422 4.54661C26.2422 4.88993 26.3599 5.17961 26.5954 5.41564C26.8308 5.65167 27.1197 5.76969 27.4622 5.76969ZM28.3291 14.0631C28.0936 14.2991 27.8047 14.4172 27.4622 14.4172C27.1197 14.4172 26.8308 14.2991 26.5954 14.0631C26.3599 13.8271 26.2422 13.5374 26.2422 13.1941C26.2422 12.8508 26.3599 12.5611 26.5954 12.3251C26.8308 12.089 27.1197 11.971 27.4622 11.971C27.8047 11.971 28.0936 12.089 28.3291 12.3251C28.5645 12.5611 28.6822 12.8508 28.6822 13.1941C28.6822 13.5374 28.5645 13.8271 28.3291 14.0631ZM37.2329 16.874C38.4315 16.874 39.4536 16.5467 40.299 15.8923C41.1445 15.2378 41.7902 14.3098 42.2361 13.1082C42.682 11.9066 42.9049 10.4904 42.9049 8.85959C42.9049 7.23597 42.682 5.82693 42.2361 4.63246C41.7902 3.43799 41.1445 2.51353 40.299 1.85908C39.4536 1.20463 38.4315 0.877401 37.2329 0.877401C36.0414 0.877401 35.0194 1.20642 34.1668 1.86445C33.3142 2.52248 32.6632 3.45051 32.2137 4.64855C31.7642 5.8466 31.5395 7.25385 31.5395 8.87032C31.5395 10.5011 31.7642 11.9155 32.2137 13.1135C32.6632 14.3116 33.3125 15.2378 34.1615 15.8923C35.0105 16.5467 36.0343 16.874 37.2329 16.874ZM35.1835 14.4118C35.7436 14.9304 36.4267 15.1896 37.2329 15.1896C38.0392 15.1896 38.7187 14.9304 39.2717 14.4118C39.8246 13.8932 40.2455 13.1619 40.5345 12.2178C40.8234 11.2736 40.9679 10.1579 40.9679 8.87041C40.9679 7.59726 40.8216 6.49041 40.5291 5.54986C40.2366 4.60931 39.8139 3.87796 39.261 3.35583C38.708 2.8337 38.032 2.57263 37.2329 2.57263C36.4339 2.57263 35.7561 2.8337 35.1996 3.35583C34.6431 3.87796 34.2168 4.61109 33.9207 5.55522C33.6246 6.49935 33.4766 7.60084 33.4766 8.85968C33.4766 10.1471 33.621 11.2647 33.91 12.2124C34.1989 13.1601 34.6235 13.8932 35.1835 14.4118ZM48.6679 9.12789C49.1994 9.4283 49.8005 9.5785 50.4712 9.5785C51.1561 9.5785 51.7661 9.43009 52.3012 9.13326C52.8363 8.83643 53.259 8.42874 53.5694 7.91018C53.8797 7.39163 54.0349 6.80333 54.0349 6.1453C54.0349 5.48012 53.8797 4.8811 53.5694 4.34824C53.259 3.81538 52.8363 3.39159 52.3012 3.07688C51.7661 2.76217 51.1668 2.60482 50.5033 2.60482C49.8469 2.60482 49.2494 2.76038 48.7107 3.07152C48.172 3.38265 47.7457 3.80107 47.4318 4.32678C47.1179 4.85249 46.9609 5.44078 46.9609 6.09166C46.9609 6.76399 47.1125 7.36302 47.4158 7.88872C47.719 8.41443 48.1364 8.82749 48.6679 9.12789Z" fill="#605F5F"/>
</g>
<g id="Graph">
<g id="Graph Bars">
<path id="Bar" fill-rule="evenodd" clip-rule="evenodd" d="M6.31196 117.761C4.79887 117.761 3.57227 118.987 3.57227 120.501V209.257C3.57227 210.77 4.79887 211.996 6.31196 211.996H24.8326C26.3457 211.996 27.5723 210.77 27.5723 209.257V120.501C27.5723 118.987 26.3457 117.761 24.8326 117.761H6.31196Z" fill="#44D2A8"/>
<path id="Bar_2" fill-rule="evenodd" clip-rule="evenodd" d="M35.312 92.6982C33.7989 92.6982 32.5723 93.9248 32.5723 95.4379V209.257C32.5723 210.77 33.7989 211.996 35.312 211.996H53.8326C55.3457 211.996 56.5723 210.77 56.5723 209.257V95.4379C56.5723 93.9248 55.3457 92.6982 53.8326 92.6982H35.312Z" fill="#44D2A8"/>
<path id="Bar_3" fill-rule="evenodd" clip-rule="evenodd" d="M64.312 177.911C62.7989 177.911 61.5723 179.138 61.5723 180.651V209.257C61.5723 210.77 62.7989 211.996 64.312 211.996H83.8326C85.3457 211.996 86.5723 210.77 86.5723 209.257V180.651C86.5723 179.138 85.3457 177.911 83.8326 177.911H64.312Z" fill="#44D2A8"/>
<path id="Bar_4" fill-rule="evenodd" clip-rule="evenodd" d="M94.312 145.831C92.7989 145.831 91.5723 147.058 91.5723 148.571V209.257C91.5723 210.77 92.7989 211.996 94.312 211.996H112.833C114.346 211.996 115.572 210.77 115.572 209.257V148.571C115.572 147.058 114.346 145.831 112.833 145.831H94.312Z" fill="#44D2A8"/>
<path id="Bar_5" fill-rule="evenodd" clip-rule="evenodd" d="M124.312 128.788C122.799 128.788 121.572 130.015 121.572 131.528V209.257C121.572 210.77 122.799 211.996 124.312 211.996H142.833C144.346 211.996 145.572 210.77 145.572 209.257V131.528C145.572 130.015 144.346 128.788 142.833 128.788H124.312Z" fill="#44D2A8"/>
<path id="Bar - Active" fill-rule="evenodd" clip-rule="evenodd" d="M153.312 183.926C151.799 183.926 150.572 185.153 150.572 186.666V209.257C150.572 210.77 151.799 211.996 153.312 211.996H171.833C173.346 211.996 174.572 210.77 174.572 209.257V186.666C174.572 185.153 173.346 183.926 171.833 183.926H153.312Z" fill="#44D2A8"/>
<path id="Bar - Active Copy" fill-rule="evenodd" clip-rule="evenodd" d="M182.312 151.846C180.799 151.846 179.572 153.073 179.572 154.586V209.257C179.572 210.77 180.799 211.996 182.312 211.996H200.833C202.346 211.996 203.572 210.77 203.572 209.257V154.586C203.572 153.073 202.346 151.846 200.833 151.846H182.312Z" fill="#44D2A8"/>
</g>
</g>
<g id="Data">
<path id="April2016" fill-rule="evenodd" clip-rule="evenodd" d="M113.172 50.2255C114.492 50.2255 115.667 49.9394 116.697 49.3672C117.727 48.795 118.537 48.0104 119.125 47.0135C119.714 46.0167 120.008 44.8834 120.008 43.6139C120.008 42.389 119.729 41.2938 119.172 40.3282C118.615 39.3626 117.854 38.6027 116.891 38.0483C115.928 37.494 114.831 37.2169 113.6 37.2169C112.726 37.2169 111.93 37.3577 111.213 37.6393C110.495 37.9209 109.881 38.2987 109.373 38.7725C108.865 39.2464 108.477 39.7739 108.209 40.355H108.169C108.196 38.6384 108.412 37.1833 108.818 35.9898C109.224 34.7962 109.806 33.8887 110.564 33.2673C111.322 32.646 112.236 32.3353 113.306 32.3353C113.966 32.3353 114.561 32.4426 115.092 32.6571C115.623 32.8717 116.075 33.1846 116.45 33.5959C116.824 34.0072 117.105 34.5034 117.293 35.0845H119.741C119.544 34.0921 119.148 33.2316 118.55 32.5029C117.952 31.7743 117.208 31.2088 116.316 30.8064C115.424 30.4041 114.43 30.2029 113.333 30.2029C111.763 30.2029 110.419 30.612 109.3 31.43C108.18 32.2481 107.324 33.4283 106.731 34.9705C106.138 36.5128 105.841 38.3702 105.841 40.5428C105.841 42.3398 106.053 43.8575 106.477 45.0958C106.901 46.3341 107.467 47.3309 108.176 48.0864C108.885 48.8419 109.672 49.3873 110.537 49.7226C111.402 50.0578 112.28 50.2255 113.172 50.2255ZM73.923 49.8902V47.7444H64.4919V47.6908L69.0804 42.9701C70.2665 41.7542 71.1851 40.7305 71.8361 39.899C72.4872 39.0675 72.9442 38.321 73.2073 37.6594C73.4704 36.9978 73.6019 36.3094 73.6019 35.5941C73.6019 34.6196 73.3478 33.7233 72.8394 32.9052C72.3311 32.0871 71.6243 31.4345 70.7191 30.9472C69.8139 30.46 68.7638 30.2163 67.5687 30.2163C66.3291 30.2163 65.2188 30.4734 64.2378 30.9874C63.2567 31.5015 62.4831 32.2034 61.9168 33.093C61.3505 33.9826 61.0673 34.9951 61.0673 36.1305H63.395C63.395 35.4063 63.5778 34.7559 63.9434 34.1792C64.3091 33.6026 64.8063 33.1488 65.435 32.818C66.0638 32.4872 66.775 32.3218 67.5687 32.3218C68.3089 32.3218 68.9488 32.4738 69.4884 32.7778C70.0279 33.0818 70.4471 33.4931 70.7459 34.0116C71.0446 34.5302 71.194 35.1068 71.194 35.7416C71.194 36.2781 71.107 36.7832 70.9331 37.2571C70.7592 37.7309 70.4404 38.2651 69.9767 38.8597C69.5129 39.4542 68.8485 40.2075 67.9834 41.1194L61.1877 48.2272V49.8902H73.923ZM4.84208 44.3506L2.90235 49.8894H0.374023L7.4908 30.5374H9.87198L16.9888 49.8894H14.4604L12.5207 44.3506H4.84208ZM5.55078 42.2996H11.8114L8.72123 33.4752H8.64096L5.55078 42.2996ZM21.4966 54.5438V47.6237H21.5501C21.8266 48.1333 22.1833 48.5759 22.6203 48.9514C23.0573 49.3269 23.5612 49.6175 24.132 49.8231C24.7027 50.0288 25.3181 50.1316 25.978 50.1316C27.1463 50.1316 28.1742 49.8343 29.0615 49.2397C29.9489 48.6452 30.6401 47.807 31.135 46.7252C31.63 45.6434 31.8775 44.3738 31.8775 42.9165C31.8775 41.4592 31.6278 40.1896 31.1283 39.1078C30.6289 38.026 29.9333 37.1878 29.0415 36.5932C28.1496 35.9987 27.1107 35.7014 25.9245 35.7014C25.2557 35.7014 24.6336 35.8087 24.0584 36.0233C23.4832 36.2379 22.9726 36.5396 22.5267 36.9285C22.0808 37.3174 21.7151 37.7756 21.4297 38.3031H21.3762V35.9428H19.1689V54.5438H21.4966ZM23.383 47.436C23.9805 47.8651 24.6761 48.0797 25.4699 48.0797C26.2993 48.0797 27.015 47.8696 27.6169 47.4494C28.2189 47.0292 28.6827 46.4324 29.0082 45.659C29.3337 44.8857 29.4965 43.9715 29.4965 42.9165C29.4965 41.8615 29.3337 40.9496 29.0082 40.1807C28.6827 39.4118 28.2189 38.815 27.6169 38.3903C27.015 37.9656 26.2993 37.7533 25.4699 37.7533C24.6761 37.7533 23.9805 37.9679 23.383 38.397C22.7855 38.8262 22.3195 39.4274 21.9851 40.2008C21.6506 40.9742 21.4834 41.8794 21.4834 42.9165C21.4834 43.9536 21.6506 44.8589 21.9851 45.6322C22.3195 46.4056 22.7855 47.0068 23.383 47.436ZM36.8814 49.8902V41.1999C36.8814 40.5383 37.004 39.9639 37.2493 39.4766C37.4945 38.9893 37.8423 38.6094 38.2927 38.3367C38.7431 38.064 39.267 37.9276 39.8645 37.9276C40.1499 37.9276 40.4063 37.941 40.6337 37.9679C40.8612 37.9947 41.0195 38.026 41.1086 38.0617V35.7953C41.0195 35.7774 40.8924 35.7573 40.7274 35.7349C40.5624 35.7126 40.3773 35.7014 40.1722 35.7014C39.3607 35.7014 38.6539 35.9294 38.0519 36.3854C37.4499 36.8413 37.033 37.4538 36.8011 38.2227H36.7476V35.9428H34.5537V49.8902H36.8814ZM45.6498 33.0318C45.3689 33.3179 45.0233 33.461 44.6131 33.461C44.2118 33.461 43.8684 33.3179 43.583 33.0318C43.2977 32.7457 43.155 32.4015 43.155 31.9992C43.155 31.5879 43.2977 31.2415 43.583 30.9598C43.8684 30.6782 44.2118 30.5374 44.6131 30.5374C45.0233 30.5374 45.3689 30.6782 45.6498 30.9598C45.9308 31.2415 46.0712 31.5879 46.0712 31.9992C46.0712 32.4015 45.9308 32.7457 45.6498 33.0318ZM45.7769 49.8902V35.9428H43.4492V49.8902H45.7769ZM51.7031 30.5374V49.8894H49.3755V30.5374H51.7031ZM87.6148 48.9849C86.558 49.803 85.2804 50.212 83.7821 50.212C82.2839 50.212 81.0041 49.803 79.9428 48.9849C78.8815 48.1668 78.07 47.009 77.5081 45.5115C76.9463 44.0139 76.6654 42.2459 76.6654 40.2075C76.6654 38.1869 76.9463 36.4278 77.5081 34.9303C78.07 33.4327 78.8838 32.2727 79.9495 31.4501C81.0152 30.6276 82.2928 30.2163 83.7821 30.2163C85.2804 30.2163 86.558 30.6254 87.6148 31.4434C88.6716 32.2615 89.4787 33.4171 90.0361 34.9101C90.5935 36.4032 90.8722 38.1645 90.8722 40.1941C90.8722 42.2325 90.5935 44.0028 90.0361 45.5048C89.4787 47.0068 88.6716 48.1668 87.6148 48.9849ZM83.7824 48.1065C82.7746 48.1065 81.9207 47.7824 81.2206 47.1342C80.5205 46.486 79.9899 45.5696 79.6287 44.385C79.2675 43.2004 79.0869 41.8034 79.0869 40.1941C79.0869 38.6205 79.272 37.2437 79.6421 36.0635C80.0122 34.8833 80.5451 33.9669 81.2407 33.3143C81.9363 32.6616 82.7835 32.3353 83.7824 32.3353C84.7812 32.3353 85.6262 32.6616 86.3174 33.3143C87.0086 33.9669 87.537 34.8811 87.9026 36.0568C88.2683 37.2325 88.4511 38.6161 88.4511 40.2075C88.4511 41.8168 88.2705 43.2115 87.9093 44.3917C87.5481 45.5719 87.0219 46.486 86.3308 47.1342C85.6396 47.7824 84.7901 48.1065 83.7824 48.1065ZM100.959 30.5374V49.8894H98.6311V33.0989H98.5775C98.2386 33.3403 97.8975 33.5794 97.5542 33.8163C97.2108 34.0533 96.8697 34.2902 96.5308 34.5271L95.5141 35.2379C95.1752 35.4748 94.8341 35.7118 94.4907 35.9487C94.1474 36.1856 93.8063 36.4248 93.4674 36.6662V34.2388C93.8063 33.9885 94.1474 33.7404 94.4907 33.4945L95.5208 32.7569L96.5509 32.0193L97.5809 31.2817C97.9243 31.0358 98.2654 30.7877 98.6043 30.5374H100.959ZM110.911 47.4829C111.58 47.8807 112.325 48.0797 113.145 48.0797C113.966 48.0797 114.71 47.883 115.379 47.4896C116.048 47.0962 116.579 46.5687 116.971 45.9071C117.364 45.2455 117.56 44.5079 117.56 43.6943C117.56 42.8449 117.373 42.0939 116.998 41.4413C116.623 40.7886 116.108 40.2745 115.453 39.899C114.797 39.5235 114.042 39.3357 113.185 39.3357C112.338 39.3357 111.578 39.5213 110.905 39.8923C110.231 40.2633 109.703 40.7729 109.319 41.4211C108.936 42.0693 108.744 42.8047 108.744 43.6272C108.744 44.4498 108.938 45.1986 109.326 45.8736C109.714 46.5486 110.242 47.085 110.911 47.4829Z" fill="white"/>
<path id="Money" fill-rule="evenodd" clip-rule="evenodd" d="M3.54961 71.6147V62.7474H3.64593L7.29796 71.6147H8.51798L12.17 62.7474H12.2663V71.6147H13.6148V60.0035H11.9372L7.97218 69.6915H7.84376L3.8787 60.0035H2.20117V71.6147H3.54961ZM19.5702 71.7676C20.3942 71.7676 21.1032 71.5865 21.6972 71.2244C22.2912 70.8623 22.75 70.346 23.0737 69.6755C23.3975 69.0049 23.5593 68.2056 23.5593 67.2776C23.5593 66.3442 23.3975 65.5422 23.0737 64.8717C22.75 64.2011 22.2912 63.6862 21.6972 63.3267C21.1032 62.9673 20.3942 62.7876 19.5702 62.7876C18.7515 62.7876 18.0438 62.9673 17.4472 63.3267C16.8506 63.6862 16.3904 64.2011 16.0667 64.8717C15.7429 65.5422 15.5811 66.3442 15.5811 67.2776C15.5811 68.2056 15.7429 69.0049 16.0667 69.6755C16.3904 70.346 16.8506 70.8623 17.4472 71.2244C18.0438 71.5865 18.7515 71.7676 19.5702 71.7676ZM18.1816 70.1381C18.5615 70.3929 19.0244 70.5203 19.5702 70.5203C20.116 70.5203 20.5789 70.3929 20.9588 70.1381C21.3387 69.8833 21.629 69.5132 21.8296 69.0277C22.0303 68.5422 22.1306 67.9589 22.1306 67.2776C22.1306 66.5909 22.0303 66.0062 21.8296 65.5234C21.629 65.0406 21.3387 64.6718 20.9588 64.417C20.5789 64.1622 20.116 64.0348 19.5702 64.0348C19.0244 64.0348 18.5615 64.1622 18.1816 64.417C17.8017 64.6718 17.5114 65.0406 17.3108 65.5234C17.1101 66.0062 17.0098 66.5909 17.0098 67.2776C17.0098 67.9589 17.1101 68.5422 17.3108 69.0277C17.5114 69.5132 17.8017 69.8833 18.1816 70.1381ZM26.7302 71.6147V66.481C26.7302 65.9714 26.8238 65.5342 27.0111 65.1694C27.1984 64.8046 27.4619 64.5243 27.8017 64.3285C28.1415 64.1327 28.5415 64.0348 29.0016 64.0348C29.6919 64.0348 30.2043 64.2226 30.5387 64.5981C30.8731 64.9736 31.0404 65.553 31.0404 66.3362V71.6147H32.4209V65.9982C32.4209 64.9682 32.16 64.1757 31.6383 63.6204C31.1166 63.0652 30.3688 62.7876 29.3949 62.7876C28.7314 62.7876 28.187 62.9217 27.7616 63.19C27.3362 63.4582 27.0138 63.831 26.7944 64.3084H26.6659V62.9405H25.3496V71.6147H26.7302ZM39.7243 71.4779C39.2267 71.671 38.6621 71.7676 38.0307 71.7676C37.2334 71.7676 36.5418 71.5852 35.9559 71.2204C35.37 70.8556 34.9192 70.3366 34.6034 69.6634C34.2877 68.9902 34.1299 68.1976 34.1299 67.2856C34.1299 66.3737 34.2904 65.5811 34.6115 64.9079C34.9325 64.2347 35.3847 63.713 35.9679 63.3428C36.5512 62.9727 37.2388 62.7876 38.0307 62.7876C38.812 62.7876 39.4822 62.9633 40.0414 63.3147C40.6005 63.666 41.0313 64.1676 41.3336 64.8194C41.6359 65.4712 41.7871 66.2476 41.7871 67.1489V67.6799H35.5666V67.7443C35.5934 68.3129 35.7111 68.8078 35.9198 69.2289C36.1285 69.65 36.4161 69.9745 36.7826 70.2025C37.1492 70.4305 37.5759 70.5445 38.0628 70.5445C38.6193 70.5445 39.0849 70.4439 39.4594 70.2428C39.834 70.0416 40.1123 69.7506 40.2942 69.3697H41.6747C41.541 69.8632 41.3069 70.2897 40.9724 70.6491C40.638 71.0085 40.222 71.2848 39.7243 71.4779ZM40.3351 66.5615H35.5674C35.6048 66.0465 35.7292 65.5986 35.9406 65.2177C36.152 64.8368 36.4356 64.5404 36.7914 64.3286C37.1473 64.1167 37.5553 64.0107 38.0154 64.0107C38.4756 64.0107 38.877 64.1167 39.2194 64.3286C39.5619 64.5404 39.8308 64.8368 40.0261 65.2177C40.2214 65.5986 40.3244 66.0465 40.3351 66.5615ZM45.4473 74.5195C45.0995 74.675 44.6687 74.7528 44.155 74.7528C44.0641 74.7528 43.9624 74.7488 43.85 74.7407C43.7377 74.7327 43.6333 74.7206 43.537 74.7045V73.5217C43.6226 73.5378 43.7162 73.5485 43.8179 73.5539C43.9196 73.5592 44.0186 73.5619 44.1149 73.5619C44.5109 73.5619 44.8293 73.4546 45.07 73.2401C45.3108 73.0255 45.5222 72.658 45.7041 72.1377L45.7844 71.8802L45.8647 71.6227L42.6621 62.9405H44.155L46.5309 70.0778H46.6593L49.0271 62.9405H50.4959L47.1168 72.1457C46.8706 72.8163 46.6178 73.3406 46.3583 73.7188C46.0988 74.097 45.7951 74.3639 45.4473 74.5195Z" fill="white"/>
<path id="$90271.89" fill-rule="evenodd" clip-rule="evenodd" d="M128.867 71.3876L128.867 72.7815H127.904L127.904 71.3818L127.821 71.375C127.334 71.3241 126.873 71.2095 126.439 71.0314C125.832 70.7819 125.338 70.4185 124.958 69.941C124.579 69.4636 124.378 68.8843 124.356 68.203H125.753C125.807 68.5785 125.932 68.9124 126.13 69.2048C126.328 69.4971 126.615 69.7278 126.989 69.8968C127.203 69.9933 127.452 70.0623 127.736 70.1037L127.904 70.124V66.284L127.72 66.2396C126.719 65.9982 125.956 65.6428 125.432 65.1735C124.908 64.7041 124.645 64.0724 124.645 63.2785C124.645 62.6509 124.81 62.1077 125.139 61.6491C125.468 61.1904 125.916 60.8364 126.483 60.5869C126.909 60.3998 127.378 60.2829 127.891 60.2361L127.904 60.2352L127.904 58.8368H128.867L128.867 60.2343L128.994 60.2443C129.462 60.2968 129.899 60.4151 130.304 60.599C130.871 60.8565 131.327 61.2199 131.673 61.6893C132.018 62.1587 132.201 62.7126 132.222 63.3509H130.826C130.788 62.9379 130.661 62.5919 130.445 62.3129C130.228 62.034 129.946 61.8234 129.598 61.6813C129.389 61.596 129.164 61.5363 128.923 61.5021L128.867 61.497V65.1493L129.116 65.2097C130.149 65.4564 130.943 65.8132 131.5 66.2799C132.056 66.7466 132.335 67.4037 132.335 68.2513C132.335 68.9486 132.153 69.5307 131.789 69.9974C131.425 70.4641 130.946 70.8154 130.352 71.0515C129.928 71.2201 129.478 71.3284 129.002 71.3766L128.867 71.3876ZM127.92 64.9199L127.904 64.9154V61.4998L127.796 61.5131C127.54 61.5531 127.311 61.6199 127.11 61.7134C126.756 61.877 126.49 62.0889 126.311 62.3491C126.132 62.6092 126.042 62.8868 126.042 63.1819C126.042 63.5735 126.181 63.9181 126.459 64.2159C126.738 64.5136 127.225 64.7483 127.92 64.9199ZM128.866 70.1355V66.5178L128.915 66.5293C129.445 66.658 129.855 66.8082 130.147 66.9799C130.439 67.1515 130.643 67.3513 130.761 67.5793C130.879 67.8073 130.938 68.0688 130.938 68.3639C130.938 68.7018 130.855 69.0049 130.689 69.2731C130.523 69.5413 130.257 69.7546 129.89 69.9128C129.628 70.0259 129.306 70.0985 128.923 70.1308L128.866 70.1355ZM140.731 71.144C140.067 71.6348 139.262 71.8802 138.315 71.8802C137.662 71.8802 137.071 71.7595 136.541 71.5181C136.011 71.2767 135.572 70.9348 135.224 70.4922C134.877 70.0496 134.641 69.5226 134.518 68.9111H136.003C136.153 69.4368 136.436 69.8485 136.854 70.1462C137.271 70.4439 137.764 70.5928 138.331 70.5928C138.802 70.5928 139.22 70.4895 139.587 70.283C139.953 70.0765 140.265 69.772 140.522 69.3697C140.779 68.9674 140.978 68.4698 141.12 67.8771C141.262 67.2843 141.343 66.6017 141.365 65.8292H141.236C141.049 66.2047 140.802 66.5252 140.494 66.7908C140.186 67.0563 139.834 67.2602 139.438 67.4023C139.042 67.5445 138.614 67.6156 138.154 67.6156C137.421 67.6156 136.767 67.4479 136.192 67.1126C135.616 66.7774 135.166 66.3174 134.839 65.7327C134.513 65.1479 134.35 64.4801 134.35 63.7291C134.35 62.9512 134.524 62.2619 134.871 61.6611C135.219 61.0603 135.698 60.5882 136.308 60.2449C136.918 59.9016 137.619 59.7299 138.411 59.7299C139.037 59.7299 139.615 59.8506 140.145 60.092C140.674 60.3334 141.136 60.6982 141.529 61.1864C141.923 61.6745 142.228 62.2861 142.444 63.021C142.661 63.7559 142.769 64.6169 142.769 65.6039C142.769 66.9343 142.595 68.0675 142.248 69.0036C141.9 69.9397 141.394 70.6531 140.731 71.144ZM138.411 66.3603C137.903 66.3603 137.452 66.2477 137.059 66.0223C136.665 65.797 136.359 65.4819 136.14 65.0769C135.92 64.6719 135.811 64.2065 135.811 63.6808C135.811 63.1712 135.926 62.7152 136.156 62.3129C136.386 61.9106 136.699 61.5914 137.095 61.3553C137.491 61.1193 137.935 61.0013 138.427 61.0013C138.925 61.0013 139.37 61.1207 139.764 61.3594C140.157 61.5981 140.469 61.9226 140.699 62.333C140.929 62.7434 141.044 63.2087 141.044 63.7291C141.044 64.2387 140.931 64.692 140.707 65.0889C140.482 65.4859 140.172 65.797 139.776 66.0223C139.38 66.2477 138.925 66.3603 138.411 66.3603ZM150.82 71.1762C150.21 71.6509 149.472 71.8883 148.605 71.8883C147.732 71.8883 146.991 71.6496 146.381 71.1721C145.771 70.6947 145.304 70.0027 144.981 69.0961C144.657 68.1895 144.495 67.0925 144.495 65.8051C144.495 64.5284 144.657 63.4367 144.981 62.5301C145.304 61.6236 145.774 60.9302 146.389 60.4501C147.005 59.97 147.743 59.7299 148.605 59.7299C149.466 59.7299 150.202 59.9713 150.812 60.4541C151.422 60.9369 151.889 61.6329 152.213 62.5422C152.536 63.4515 152.698 64.5471 152.698 65.8292C152.698 67.1113 152.538 68.2043 152.217 69.1082C151.895 70.0121 151.43 70.7014 150.82 71.1762ZM148.604 70.625C148.037 70.625 147.555 70.4386 147.159 70.0657C146.763 69.6929 146.462 69.1484 146.256 68.4323C146.05 67.7161 145.947 66.8404 145.947 65.8051C145.947 64.7805 146.052 63.9115 146.26 63.198C146.469 62.4845 146.771 61.9401 147.167 61.5646C147.563 61.189 148.042 61.0013 148.604 61.0013C149.171 61.0013 149.65 61.1877 150.041 61.5605C150.431 61.9334 150.73 62.4765 150.936 63.19C151.142 63.9034 151.245 64.7751 151.245 65.8051C151.245 66.8404 151.143 67.7175 150.94 68.4363C150.736 69.1551 150.439 69.6996 150.049 70.0698C149.658 70.4399 149.177 70.625 148.604 70.625ZM162.185 70.3112V71.6147H154.688V70.6169L158.605 66.3683C159.098 65.8319 159.483 65.388 159.761 65.0366C160.039 64.6853 160.235 64.3661 160.347 64.0791C160.459 63.7921 160.516 63.4796 160.516 63.1417C160.516 62.7286 160.427 62.3612 160.251 62.0393C160.074 61.7174 159.823 61.4626 159.496 61.2749C159.17 61.0871 158.779 60.9932 158.324 60.9932C157.864 60.9932 157.46 61.0885 157.112 61.2789C156.765 61.4693 156.494 61.7349 156.302 62.0755C156.109 62.4161 156.013 62.8171 156.013 63.2785H154.616C154.616 62.5865 154.779 61.9736 155.106 61.4398C155.432 60.9061 155.882 60.4876 156.454 60.1846C157.027 59.8815 157.682 59.7299 158.421 59.7299C159.095 59.7299 159.702 59.8707 160.243 60.1524C160.783 60.434 161.21 60.8202 161.523 61.3111C161.836 61.8019 161.993 62.3612 161.993 62.9888C161.993 63.434 161.915 63.8605 161.76 64.2682C161.605 64.6759 161.334 65.1292 160.949 65.6281C160.564 66.1269 160.023 66.7358 159.328 67.4546L156.695 70.1824V70.3112H162.185ZM166.239 71.6147L171.392 61.3473V60.0035H163.727V61.299H169.923V61.4116L164.722 71.6147H166.239ZM177.444 60.0035V71.6147H175.999V61.6128H175.871C175.673 61.7577 175.476 61.9011 175.281 62.0433L174.695 62.4698C174.499 62.6119 174.303 62.7541 174.105 62.8962C173.907 63.0384 173.71 63.1806 173.515 63.3227C173.319 63.4649 173.123 63.6084 172.925 63.7532V62.2244C173.128 62.0741 173.333 61.9253 173.539 61.7778L174.157 61.3352L174.775 60.8926L175.393 60.4501C175.599 60.3026 175.804 60.1537 176.007 60.0035H177.444ZM181.264 71.6952C181.553 71.6952 181.799 71.5919 182.003 71.3854C182.206 71.1788 182.308 70.9334 182.308 70.6491C182.308 70.3594 182.206 70.1127 182.003 69.9088C181.799 69.705 181.553 69.6031 181.264 69.6031C180.981 69.6031 180.736 69.705 180.53 69.9088C180.324 70.1127 180.221 70.3594 180.221 70.6491C180.221 70.9334 180.324 71.1788 180.53 71.3854C180.736 71.5919 180.981 71.6952 181.264 71.6952ZM190.186 71.4578C189.557 71.7448 188.833 71.8883 188.015 71.8883C187.196 71.8883 186.473 71.7448 185.847 71.4578C185.221 71.1708 184.73 70.7725 184.375 70.2629C184.019 69.7533 183.841 69.1685 183.841 68.5087C183.841 68.0045 183.941 67.5458 184.142 67.1328C184.342 66.7197 184.623 66.375 184.985 66.0988C185.346 65.8225 185.767 65.6388 186.249 65.5476V65.4188C185.66 65.2579 185.191 64.9441 184.84 64.4774C184.49 64.0107 184.314 63.4609 184.314 62.8279C184.314 62.2217 184.472 61.6866 184.788 61.2226C185.104 60.7585 185.54 60.3938 186.096 60.1282C186.653 59.8627 187.292 59.7299 188.015 59.7299C188.737 59.7299 189.376 59.8627 189.933 60.1282C190.489 60.3938 190.925 60.7585 191.241 61.2226C191.557 61.6866 191.715 62.2217 191.715 62.8279C191.715 63.4609 191.542 64.0094 191.197 64.4734C190.852 64.9374 190.38 65.2526 189.78 65.4188V65.5476C190.267 65.6388 190.69 65.8225 191.049 66.0988C191.407 66.375 191.687 66.7197 191.887 67.1328C192.088 67.5458 192.188 68.0045 192.188 68.5087C192.188 69.1685 192.012 69.7533 191.659 70.2629C191.305 70.7725 190.814 71.1708 190.186 71.4578ZM188.014 64.9361C187.559 64.9361 187.16 64.8543 186.818 64.6906C186.475 64.527 186.209 64.2964 186.019 63.9986C185.829 63.7009 185.734 63.3563 185.734 62.9647C185.734 62.5623 185.829 62.2123 186.019 61.9146C186.209 61.6169 186.475 61.3849 186.818 61.2186C187.16 61.0523 187.559 60.9691 188.014 60.9691C188.474 60.9691 188.874 61.0523 189.214 61.2186C189.554 61.3849 189.818 61.6169 190.008 61.9146C190.198 62.2123 190.293 62.5623 190.293 62.9647C190.293 63.3563 190.198 63.7009 190.008 63.9986C189.818 64.2964 189.552 64.527 189.21 64.6906C188.867 64.8543 188.469 64.9361 188.014 64.9361ZM186.601 70.3635C187.008 70.5539 187.479 70.6491 188.014 70.6491C188.549 70.6491 189.02 70.5539 189.426 70.3635C189.833 70.173 190.151 69.9088 190.382 69.5709C190.612 69.2329 190.727 68.844 190.727 68.4041C190.727 67.9589 190.612 67.5686 190.382 67.2334C190.151 66.8981 189.833 66.6352 189.426 66.4448C189.02 66.2544 188.549 66.1591 188.014 66.1591C187.479 66.1591 187.008 66.2544 186.601 66.4448C186.194 66.6352 185.876 66.8981 185.646 67.2334C185.416 67.5686 185.301 67.9589 185.301 68.4041C185.301 68.844 185.416 69.2329 185.646 69.5709C185.876 69.9088 186.194 70.173 186.601 70.3635ZM197.879 71.8802C198.826 71.8802 199.632 71.6348 200.295 71.144C200.959 70.6531 201.464 69.9397 201.812 69.0036C202.16 68.0675 202.334 66.9343 202.334 65.6039C202.334 64.6169 202.225 63.7559 202.009 63.021C201.792 62.2861 201.487 61.6745 201.094 61.1864C200.7 60.6982 200.239 60.3334 199.709 60.092C199.179 59.8506 198.602 59.7299 197.975 59.7299C197.184 59.7299 196.483 59.9016 195.873 60.2449C195.263 60.5882 194.784 61.0603 194.436 61.6611C194.088 62.2619 193.914 62.9512 193.914 63.7291C193.914 64.4801 194.077 65.1479 194.404 65.7327C194.73 66.3174 195.181 66.7774 195.756 67.1126C196.331 67.4479 196.986 67.6156 197.719 67.6156C198.179 67.6156 198.607 67.5445 199.003 67.4023C199.399 67.2602 199.751 67.0563 200.058 66.7908C200.366 66.5252 200.613 66.2047 200.801 65.8292H200.929C200.908 66.6017 200.826 67.2843 200.684 67.8771C200.543 68.4698 200.343 68.9674 200.086 69.3697C199.83 69.772 199.518 70.0765 199.151 70.283C198.785 70.4895 198.366 70.5928 197.895 70.5928C197.328 70.5928 196.836 70.4439 196.418 70.1462C196.001 69.8485 195.717 69.4368 195.568 68.9111H194.083C194.206 69.5226 194.441 70.0496 194.789 70.4922C195.137 70.9348 195.576 71.2767 196.105 71.5181C196.635 71.7595 197.226 71.8802 197.879 71.8802ZM196.622 66.0223C197.015 66.2477 197.466 66.3603 197.975 66.3603C198.488 66.3603 198.943 66.2477 199.339 66.0223C199.735 65.797 200.045 65.4859 200.27 65.0889C200.495 64.692 200.607 64.2387 200.607 63.7291C200.607 63.2087 200.492 62.7434 200.262 62.333C200.032 61.9226 199.72 61.5981 199.327 61.3594C198.934 61.1207 198.488 61.0013 197.991 61.0013C197.498 61.0013 197.054 61.1193 196.658 61.3553C196.262 61.5914 195.949 61.9106 195.719 62.3129C195.489 62.7152 195.374 63.1712 195.374 63.6808C195.374 64.2065 195.484 64.6719 195.703 65.0769C195.923 65.4819 196.229 65.797 196.622 66.0223Z" fill="white"/>
</g>
</g>
</svg>
